<mxfile host="app.diagrams.net" modified="2024-04-22T18:45:44.501Z" agent="Mozilla/5.0 (Macintosh; Intel Mac OS X 10_15_7) AppleWebKit/537.36 (KHTML, like Gecko) Chrome/120.0.0.0 Whale/3.24.223.18 Safari/537.36" etag="9VhXcqowFNdvHkmD-kha" version="24.2.5" type="github">
  <diagram name="페이지-1" id="xiopHtyxnY5Z53Ou9KPh">
    <mxGraphModel dx="755" dy="486" grid="1" gridSize="10" guides="1" tooltips="1" connect="1" arrows="1" fold="1" page="1" pageScale="1" pageWidth="1169" pageHeight="827" math="0" shadow="0">
      <root>
        <mxCell id="0" />
        <mxCell id="1" parent="0" />
        <mxCell id="_9M0UdyOCFrf6O1X6bBN-2" value="" style="rounded=0;whiteSpace=wrap;html=1;fillColor=#d5e8d4;strokeColor=#82b366;" vertex="1" parent="1">
          <mxGeometry x="470" y="120" width="120" height="200" as="geometry" />
        </mxCell>
        <mxCell id="_9M0UdyOCFrf6O1X6bBN-3" value="Local Cache" style="rounded=1;whiteSpace=wrap;html=1;" vertex="1" parent="1">
          <mxGeometry x="490" y="270" width="80" height="40" as="geometry" />
        </mxCell>
        <mxCell id="_9M0UdyOCFrf6O1X6bBN-4" value="Kafka Consumer" style="rounded=1;whiteSpace=wrap;html=1;" vertex="1" parent="1">
          <mxGeometry x="490" y="200" width="80" height="40" as="geometry" />
        </mxCell>
        <mxCell id="_9M0UdyOCFrf6O1X6bBN-5" value="Kafka Producer" style="rounded=1;whiteSpace=wrap;html=1;" vertex="1" parent="1">
          <mxGeometry x="490" y="150" width="80" height="40" as="geometry" />
        </mxCell>
        <mxCell id="_9M0UdyOCFrf6O1X6bBN-6" value="Schema Registry" style="text;html=1;align=center;verticalAlign=middle;whiteSpace=wrap;rounded=0;" vertex="1" parent="1">
          <mxGeometry x="480" y="120" width="100" height="30" as="geometry" />
        </mxCell>
        <mxCell id="_9M0UdyOCFrf6O1X6bBN-8" value="" style="rounded=0;whiteSpace=wrap;html=1;fillColor=#dae8fc;strokeColor=#6c8ebf;" vertex="1" parent="1">
          <mxGeometry x="660" y="150" width="120" height="70" as="geometry" />
        </mxCell>
        <mxCell id="_9M0UdyOCFrf6O1X6bBN-14" style="rounded=0;orthogonalLoop=1;jettySize=auto;html=1;exitX=0;exitY=0.75;exitDx=0;exitDy=0;entryX=1;entryY=0.5;entryDx=0;entryDy=0;" edge="1" parent="1" source="_9M0UdyOCFrf6O1X6bBN-9" target="_9M0UdyOCFrf6O1X6bBN-4">
          <mxGeometry relative="1" as="geometry" />
        </mxCell>
        <mxCell id="_9M0UdyOCFrf6O1X6bBN-9" value="Schemas Topic" style="rounded=1;whiteSpace=wrap;html=1;" vertex="1" parent="1">
          <mxGeometry x="675" y="180" width="90" height="30" as="geometry" />
        </mxCell>
        <mxCell id="_9M0UdyOCFrf6O1X6bBN-10" value="Kafka" style="text;html=1;align=center;verticalAlign=middle;whiteSpace=wrap;rounded=0;" vertex="1" parent="1">
          <mxGeometry x="690" y="150" width="60" height="30" as="geometry" />
        </mxCell>
        <mxCell id="_9M0UdyOCFrf6O1X6bBN-11" value="" style="endArrow=classic;html=1;rounded=0;entryX=0;entryY=0.5;entryDx=0;entryDy=0;exitX=0;exitY=1;exitDx=0;exitDy=0;" edge="1" parent="1" source="_9M0UdyOCFrf6O1X6bBN-12" target="_9M0UdyOCFrf6O1X6bBN-2">
          <mxGeometry width="50" height="50" relative="1" as="geometry">
            <mxPoint x="330" y="220" as="sourcePoint" />
            <mxPoint x="350" y="170" as="targetPoint" />
          </mxGeometry>
        </mxCell>
        <mxCell id="_9M0UdyOCFrf6O1X6bBN-12" value="1. register schema" style="text;html=1;align=center;verticalAlign=middle;whiteSpace=wrap;rounded=0;" vertex="1" parent="1">
          <mxGeometry x="360" y="190" width="110" height="30" as="geometry" />
        </mxCell>
        <mxCell id="_9M0UdyOCFrf6O1X6bBN-13" style="rounded=0;orthogonalLoop=1;jettySize=auto;html=1;entryX=0.003;entryY=0.158;entryDx=0;entryDy=0;exitX=1;exitY=0.5;exitDx=0;exitDy=0;entryPerimeter=0;" edge="1" parent="1" source="_9M0UdyOCFrf6O1X6bBN-5" target="_9M0UdyOCFrf6O1X6bBN-9">
          <mxGeometry relative="1" as="geometry" />
        </mxCell>
        <mxCell id="_9M0UdyOCFrf6O1X6bBN-15" value="2. write" style="text;html=1;align=center;verticalAlign=middle;whiteSpace=wrap;rounded=0;" vertex="1" parent="1">
          <mxGeometry x="590" y="150" width="60" height="30" as="geometry" />
        </mxCell>
        <mxCell id="_9M0UdyOCFrf6O1X6bBN-16" value="3. consume" style="text;html=1;align=center;verticalAlign=middle;whiteSpace=wrap;rounded=0;" vertex="1" parent="1">
          <mxGeometry x="590" y="210" width="70" height="30" as="geometry" />
        </mxCell>
        <mxCell id="_9M0UdyOCFrf6O1X6bBN-18" value="4. update" style="text;html=1;align=center;verticalAlign=middle;whiteSpace=wrap;rounded=0;" vertex="1" parent="1">
          <mxGeometry x="530" y="240" width="60" height="30" as="geometry" />
        </mxCell>
        <mxCell id="_9M0UdyOCFrf6O1X6bBN-19" style="edgeStyle=orthogonalEdgeStyle;rounded=0;orthogonalLoop=1;jettySize=auto;html=1;exitX=0;exitY=0;exitDx=0;exitDy=0;entryX=0;entryY=1;entryDx=0;entryDy=0;" edge="1" parent="1" source="_9M0UdyOCFrf6O1X6bBN-18" target="_9M0UdyOCFrf6O1X6bBN-18">
          <mxGeometry relative="1" as="geometry" />
        </mxCell>
      </root>
    </mxGraphModel>
  </diagram>
</mxfile>
